<svg width="126" height="78" viewBox="0 0 126 78" fill="none" xmlns="http://www.w3.org/2000/svg">
<path d="M13.0405 56.5L63 2.93235L112.959 56.5H13.0405Z" fill="#0A192F" stroke="#64FFDA" stroke-width="4"/>
<path d="M63.7637 47.96C63.7637 48.1553 63.7295 48.3213 63.6611 48.458C63.6025 48.5947 63.5195 48.707 63.4121 48.7949C63.3145 48.8828 63.2021 48.9463 63.0752 48.9854C62.9482 49.0244 62.8213 49.0439 62.6943 49.0439H61.8887C61.6348 49.0439 61.4102 49.0195 61.2148 48.9707C61.0293 48.9121 60.8486 48.8145 60.6729 48.6777C60.5068 48.5312 60.3359 48.3359 60.1602 48.0918C59.9941 47.8477 59.8086 47.5352 59.6035 47.1543L53.627 36.373C53.3145 35.8164 52.9971 35.2354 52.6748 34.6299C52.3623 34.0146 52.0693 33.4189 51.7959 32.8428H51.7666C51.7861 33.5459 51.8008 34.2637 51.8105 34.9961C51.8203 35.7285 51.8252 36.4561 51.8252 37.1787V48.6191C51.8252 48.6875 51.8057 48.7559 51.7666 48.8242C51.7275 48.8828 51.6592 48.9316 51.5615 48.9707C51.4736 49 51.3516 49.0244 51.1953 49.0439C51.0488 49.0732 50.8584 49.0879 50.624 49.0879C50.3896 49.0879 50.1943 49.0732 50.0381 49.0439C49.8916 49.0244 49.7744 49 49.6865 48.9707C49.5986 48.9316 49.5352 48.8828 49.4961 48.8242C49.457 48.7559 49.4375 48.6875 49.4375 48.6191V31.1289C49.4375 30.7383 49.5449 30.46 49.7598 30.2939C49.9746 30.1279 50.209 30.0449 50.4629 30.0449H51.6641C51.9473 30.0449 52.1816 30.0693 52.3672 30.1182C52.5625 30.167 52.7334 30.25 52.8799 30.3672C53.0361 30.4746 53.1826 30.6309 53.3193 30.8359C53.4658 31.0312 53.6221 31.2803 53.7881 31.583L58.3877 39.9033C58.6709 40.4111 58.9443 40.9092 59.208 41.3975C59.4717 41.876 59.7256 42.3496 59.9697 42.8184C60.2139 43.2871 60.4531 43.751 60.6875 44.21C60.9316 44.6592 61.1709 45.1133 61.4053 45.5723H61.4199C61.4004 44.8008 61.3857 44 61.376 43.1699C61.376 42.3301 61.376 41.5244 61.376 40.7529V30.4697C61.376 30.4014 61.3955 30.3379 61.4346 30.2793C61.4736 30.2207 61.5371 30.1719 61.625 30.1328C61.7227 30.084 61.8447 30.0498 61.9912 30.0303C62.1475 30.0107 62.3477 30.001 62.5918 30.001C62.8066 30.001 62.9922 30.0107 63.1484 30.0303C63.3047 30.0498 63.4268 30.084 63.5146 30.1328C63.6025 30.1719 63.666 30.2207 63.7051 30.2793C63.7441 30.3379 63.7637 30.4014 63.7637 30.4697V47.96ZM78.7637 31.1289C78.7637 31.3145 78.7539 31.4756 78.7344 31.6123C78.7148 31.749 78.6807 31.8613 78.6318 31.9492C78.583 32.0273 78.5244 32.0859 78.4561 32.125C78.3975 32.1641 78.334 32.1836 78.2656 32.1836H71.3223V38.6289H77.8848C77.9531 38.6289 78.0166 38.6484 78.0752 38.6875C78.1436 38.7168 78.2021 38.7705 78.251 38.8486C78.2998 38.9268 78.334 39.0342 78.3535 39.1709C78.373 39.2979 78.3828 39.4639 78.3828 39.6689C78.3828 39.8545 78.373 40.0156 78.3535 40.1523C78.334 40.2793 78.2998 40.3867 78.251 40.4746C78.2021 40.5527 78.1436 40.6162 78.0752 40.665C78.0166 40.7041 77.9531 40.7236 77.8848 40.7236H71.3223V48.6191C71.3223 48.6875 71.3027 48.7559 71.2637 48.8242C71.2246 48.8828 71.1562 48.9316 71.0586 48.9707C70.9609 49 70.834 49.0244 70.6777 49.0439C70.5215 49.0732 70.3164 49.0879 70.0625 49.0879C69.8281 49.0879 69.6279 49.0732 69.4619 49.0439C69.2959 49.0244 69.1641 49 69.0664 48.9707C68.9688 48.9316 68.9004 48.8828 68.8613 48.8242C68.8223 48.7559 68.8027 48.6875 68.8027 48.6191V31.0703C68.8027 30.6895 68.9004 30.4258 69.0957 30.2793C69.3008 30.123 69.5156 30.0449 69.7402 30.0449H78.2656C78.334 30.0449 78.3975 30.0645 78.4561 30.1035C78.5244 30.1426 78.583 30.2061 78.6318 30.2939C78.6807 30.3818 78.7148 30.499 78.7344 30.6455C78.7539 30.7822 78.7637 30.9434 78.7637 31.1289Z" fill="#64FFDA"/>
</svg>
